<svg width="606" height="606" viewBox="0 0 606 606" fill="none" xmlns="http://www.w3.org/2000/svg">
<path d="M484.548 508.972L503.304 530.256C519.512 515.971 533.827 500.34 546.231 483.678L523.452 466.757C512.211 481.859 499.236 496.027 484.548 508.972" fill="#FF2600"/>
<path d="M465.789 487.689L484.548 508.972C499.236 496.027 512.212 481.859 523.453 466.756L500.677 449.835C490.596 463.377 478.961 476.08 465.789 487.689Z" fill="#FF3B19"/>
<path d="M447.032 466.405L465.789 487.688C478.96 476.08 490.596 463.377 500.677 449.835L477.898 432.914C468.98 444.896 458.687 456.136 447.032 466.405" fill="#FF5132"/>
<path d="M428.276 445.124L447.032 466.405C458.687 456.136 468.98 444.895 477.898 432.914L455.122 415.993C447.364 426.414 438.411 436.19 428.276 445.124" fill="#FF664C"/>
<path d="M409.516 423.841L428.275 445.124C438.411 436.19 447.364 426.414 455.122 415.993L432.344 399.072C425.748 407.932 418.135 416.243 409.516 423.841Z" fill="#FF7C65"/>
<path d="M390.76 402.557L409.516 423.841C418.135 416.243 425.749 407.933 432.344 399.072L409.565 382.151C404.133 389.451 397.859 396.3 390.76 402.557Z" fill="#FF917E"/>
<path d="M372.001 381.276L390.76 402.557C397.859 396.3 404.133 389.451 409.568 382.15L386.79 365.229C382.517 370.97 377.586 376.356 372.001 381.276Z" fill="#FFA797"/>
<path d="M353.244 359.993L372.001 381.276C377.586 376.356 382.517 370.97 386.79 365.229L364.011 348.308C360.901 352.488 357.31 356.409 353.244 359.993Z" fill="#FFBCB1"/>
<path d="M334.488 338.71L353.244 359.993C357.31 356.41 360.901 352.488 364.011 348.308L341.235 331.387C339.286 334.007 337.034 336.466 334.488 338.71Z" fill="#FFD2CA"/>
<path d="M318.457 314.466C317.67 315.525 316.761 316.519 315.729 317.428L334.488 338.709C337.034 336.465 339.286 334.006 341.236 331.387L318.457 314.466" fill="#FFE7E3"/>
<path d="M552.636 417.319L578.429 429.132C587.426 409.49 594.143 389.389 598.699 369.124L571.008 362.929C566.88 381.298 560.789 399.519 552.636 417.319" fill="#FF5700"/>
<path d="M526.846 405.506L552.636 417.319C560.789 399.515 566.88 381.298 571.008 362.928L543.318 356.733C539.617 373.205 534.154 389.544 526.846 405.506Z" fill="#FF6819"/>
<path d="M501.053 393.691L526.845 405.507C534.154 389.544 539.617 373.206 543.317 356.734L515.626 350.542C512.353 365.116 507.52 379.57 501.053 393.691" fill="#FF7832"/>
<path d="M475.26 381.878L501.053 393.691C507.52 379.569 512.353 365.115 515.627 350.541L487.936 344.346C485.087 357.022 480.886 369.594 475.26 381.878" fill="#FF894C"/>
<path d="M449.467 370.066L475.259 381.879C480.885 369.595 485.087 357.023 487.935 344.347L460.247 338.155C457.824 348.93 454.251 359.621 449.467 370.066" fill="#FF9965"/>
<path d="M423.674 358.253L449.466 370.066C454.251 359.62 457.824 348.929 460.247 338.154L432.556 331.959C430.56 340.839 427.617 349.646 423.674 358.253Z" fill="#FFAA7E"/>
<path d="M397.881 346.438L423.673 358.253C427.616 349.645 430.56 340.839 432.556 331.959L404.865 325.764C403.297 332.746 400.982 339.673 397.881 346.438" fill="#FFBA97"/>
<path d="M372.091 334.625L397.881 346.438C400.982 339.673 403.297 332.746 404.865 325.764L377.175 319.572C376.031 324.656 374.348 329.699 372.091 334.625" fill="#FFCBB1"/>
<path d="M346.298 322.812L372.09 334.625C374.348 329.698 376.031 324.655 377.174 319.571L349.484 313.376C348.767 316.562 347.711 319.724 346.298 322.812Z" fill="#FFDBCA"/>
<path d="M321.793 307.185C321.504 308.473 321.076 309.75 320.505 311L346.297 322.812C347.711 319.725 348.767 316.563 349.483 313.377L321.793 307.185" fill="#FFECE3"/>
<path d="M523.409 466.723L546.182 483.642C559.065 466.298 569.815 448.035 578.485 429.156L552.687 417.34C544.831 434.449 535.085 451.006 523.409 466.723" fill="#FF3B00"/>
<path d="M500.636 449.806L523.409 466.724C535.085 451.007 544.831 434.45 552.687 417.341L526.889 405.526C519.844 420.868 511.106 435.714 500.636 449.806" fill="#FF4E19"/>
<path d="M477.862 432.887L500.635 449.805C511.106 435.713 519.844 420.867 526.889 405.525L501.09 393.71C494.857 407.284 487.126 420.418 477.862 432.887Z" fill="#FF6232"/>
<path d="M455.09 415.972L477.863 432.888C487.127 420.419 494.857 407.285 501.091 393.711L475.295 381.896C469.873 393.7 463.147 405.126 455.09 415.972" fill="#FF754C"/>
<path d="M432.317 399.053L455.09 415.972C463.147 405.126 469.873 393.7 475.295 381.895L449.496 370.08C444.886 380.117 439.168 389.83 432.317 399.053" fill="#FF8865"/>
<path d="M409.547 382.134L432.317 399.053C439.168 389.83 444.886 380.117 449.497 370.079L423.698 358.264C419.9 366.534 415.191 374.537 409.547 382.134" fill="#FF9C7E"/>
<path d="M386.774 365.216L409.547 382.134C415.192 374.537 419.9 366.534 423.698 358.264L397.9 346.446C394.916 352.951 391.212 359.244 386.774 365.216Z" fill="#FFAF97"/>
<path d="M364 348.301L386.773 365.216C391.212 359.245 394.915 352.952 397.9 346.446L372.104 334.631C369.928 339.366 367.232 343.949 364 348.301Z" fill="#FFC2B1"/>
<path d="M341.228 331.382L364.001 348.3C367.233 343.949 369.929 339.366 372.105 334.63L346.306 322.815C344.942 325.783 343.254 328.656 341.228 331.382" fill="#FFD6CA"/>
<path d="M320.507 311C319.957 312.201 319.274 313.361 318.454 314.463L341.227 331.382C343.253 328.656 344.942 325.783 346.306 322.815L320.507 311" fill="#FFE9E3"/>
<path d="M570.954 362.915L598.639 369.11C603.353 348.028 605.749 326.968 605.989 306.197L577.617 305.897C577.396 324.722 575.229 343.81 570.954 362.915Z" fill="#FF7900"/>
<path d="M543.268 356.722L570.953 362.915C575.228 343.81 577.396 324.721 577.617 305.896L549.242 305.594C549.046 322.474 547.102 339.589 543.268 356.722Z" fill="#FF8619"/>
<path d="M515.583 350.53L543.268 356.723C547.102 339.589 549.046 322.475 549.242 305.594L520.868 305.292C520.696 320.228 518.975 335.371 515.583 350.53" fill="#FF9332"/>
<path d="M487.9 344.338L515.583 350.53C518.976 335.371 520.697 320.228 520.868 305.292L492.497 304.992C492.344 317.981 490.849 331.153 487.9 344.338" fill="#FFA14C"/>
<path d="M460.215 338.146L487.9 344.338C490.849 331.153 492.344 317.982 492.497 304.993L464.122 304.69C463.994 315.735 462.723 326.935 460.215 338.146" fill="#FFAE65"/>
<path d="M432.529 331.954L460.214 338.146C462.722 326.935 463.994 315.735 464.122 304.69L435.748 304.388C435.644 313.489 434.596 322.717 432.529 331.954" fill="#FFBB7E"/>
<path d="M404.844 325.762L432.529 331.954C434.596 322.717 435.644 313.489 435.75 304.389L407.376 304.086C407.294 311.242 406.469 318.499 404.844 325.762" fill="#FFC897"/>
<path d="M377.161 319.566L404.844 325.761C406.469 318.499 407.294 311.242 407.376 304.086L379.002 303.786C378.942 308.995 378.343 314.278 377.161 319.566Z" fill="#FFD6B1"/>
<path d="M349.476 313.374L377.161 319.566C378.343 314.278 378.942 308.995 379.002 303.786L350.63 303.484C350.592 306.749 350.216 310.06 349.476 313.374" fill="#FFE3CA"/>
<path d="M322.256 303.182C322.242 304.502 322.09 305.842 321.79 307.182L349.475 313.374C350.216 310.06 350.592 306.749 350.63 303.484L322.256 303.182" fill="#FFF0E3"/>
<path d="M577.56 305.894L605.926 306.196C606.157 284.594 604.121 263.498 600.036 243.13L572.223 248.734C575.92 267.193 577.767 286.315 577.56 305.894Z" fill="#FF8700"/>
<path d="M549.194 305.594L577.56 305.894C577.767 286.315 575.921 267.193 572.223 248.734L544.407 254.338C547.723 270.891 549.379 288.038 549.194 305.594Z" fill="#FF9319"/>
<path d="M520.825 305.292L549.194 305.595C549.379 288.039 547.723 270.892 544.404 254.338L516.59 259.942C519.526 274.59 520.991 289.76 520.825 305.292Z" fill="#FF9F32"/>
<path d="M492.458 304.99L520.824 305.292C520.991 289.76 519.525 274.59 516.59 259.943L488.774 265.547C491.325 278.285 492.6 291.481 492.458 304.99Z" fill="#FFAB4C"/>
<path d="M464.09 304.691L492.458 304.99C492.6 291.481 491.326 278.285 488.774 265.547L460.958 271.153C463.128 281.983 464.212 293.202 464.09 304.691" fill="#FFB765"/>
<path d="M435.724 304.388L464.09 304.69C464.212 293.201 463.129 281.982 460.958 271.153L433.142 276.757C434.931 285.68 435.824 294.922 435.724 304.388Z" fill="#FFC27E"/>
<path d="M407.355 304.086L435.723 304.388C435.824 294.923 434.931 285.681 433.142 276.757L405.326 282.361C406.734 289.376 407.434 296.646 407.355 304.086" fill="#FFCE97"/>
<path d="M378.988 303.786L407.354 304.086C407.433 296.647 406.733 289.376 405.326 282.361L377.509 287.965C378.533 293.074 379.045 298.367 378.988 303.786" fill="#FFDAB1"/>
<path d="M350.622 303.484L378.988 303.787C379.045 298.368 378.533 293.074 377.509 287.966L349.693 293.57C350.336 296.772 350.657 300.089 350.622 303.484Z" fill="#FFE6CA"/>
<path d="M321.878 299.174C322.136 300.47 322.27 301.81 322.253 303.182L350.622 303.484C350.658 300.089 350.336 296.772 349.694 293.57L321.878 299.174Z" fill="#FFF2E3"/>
<path d="M572.165 248.745L599.976 243.144C595.709 221.966 589.331 201.753 581.102 182.681L555.059 193.943C562.517 211.232 568.298 229.553 572.165 248.745" fill="#FF9300"/>
<path d="M544.358 254.349L572.166 248.745C568.299 229.55 562.518 211.232 555.059 193.943L529.019 205.208C535.704 220.711 540.888 237.139 544.358 254.349" fill="#FF9E19"/>
<path d="M516.547 259.953L544.357 254.349C540.888 237.139 535.703 220.711 529.018 205.209L502.975 216.474C508.892 230.19 513.478 244.723 516.547 259.953" fill="#FFA832"/>
<path d="M488.736 265.555L516.547 259.953C513.478 244.723 508.892 230.19 502.975 216.474L476.931 227.739C482.078 239.669 486.067 252.31 488.736 265.555" fill="#FFB34C"/>
<path d="M460.925 271.159L488.735 265.555C486.067 252.31 482.078 239.669 476.931 227.739L450.888 239.005C455.264 249.148 458.657 259.896 460.925 271.159" fill="#FFBE65"/>
<path d="M433.114 276.763L460.925 271.159C458.657 259.897 455.264 249.149 450.888 239.005L424.844 250.271C428.45 258.628 431.246 267.483 433.114 276.763Z" fill="#FFC87E"/>
<path d="M405.307 282.364L433.115 276.763C431.247 267.483 428.45 258.627 424.845 250.27L398.804 261.536C401.636 268.106 403.836 275.069 405.307 282.364" fill="#FFD397"/>
<path d="M377.496 287.968L405.307 282.364C403.836 275.069 401.639 268.106 398.804 261.535L372.761 272.8C374.825 277.585 376.426 282.655 377.496 287.968Z" fill="#FFDEB1"/>
<path d="M349.686 293.572L377.496 287.968C376.426 282.656 374.825 277.585 372.761 272.801L346.717 284.066C348.011 287.064 349.016 290.242 349.686 293.572" fill="#FFE8CA"/>
<path d="M320.674 295.331C321.197 296.543 321.605 297.828 321.875 299.173L349.686 293.572C349.016 290.242 348.011 287.064 346.718 284.066L320.674 295.331Z" fill="#FFF3E3"/>
<path d="M555.01 193.968L581.045 182.706C572.47 162.876 562.027 144.433 550.013 127.487L526.884 143.921C537.77 159.279 547.236 175.996 555.01 193.968" fill="#FFB200"/>
<path d="M528.972 205.23L555.01 193.968C547.236 175.996 537.77 159.279 526.883 143.921L503.751 160.354C513.513 174.125 522.001 189.115 528.972 205.23Z" fill="#FFBA19"/>
<path d="M502.934 216.493L528.972 205.231C522.001 189.115 513.513 174.125 503.751 160.354L480.619 176.788C489.259 188.974 496.766 202.235 502.934 216.493" fill="#FFC132"/>
<path d="M476.896 227.756L502.934 216.493C496.766 202.235 489.259 188.974 480.618 176.788L457.489 193.222C465.002 203.82 471.532 215.355 476.896 227.756Z" fill="#FFC94C"/>
<path d="M450.858 239.019L476.896 227.756C471.531 215.355 465.002 203.82 457.489 193.222L434.356 209.656C440.745 218.666 446.297 228.475 450.858 239.019" fill="#FFD065"/>
<path d="M424.823 250.281L450.858 239.019C446.297 228.475 440.745 218.666 434.356 209.656L411.224 226.09C416.487 233.513 421.062 241.595 424.823 250.281" fill="#FFD87E"/>
<path d="M398.785 261.543L424.823 250.281C421.062 241.594 416.487 233.512 411.224 226.089L388.091 242.52C392.23 248.358 395.83 254.714 398.785 261.543Z" fill="#FFDF97"/>
<path d="M372.747 272.806L398.785 261.544C395.83 254.714 392.23 248.358 388.091 242.52L364.962 258.954C367.976 263.207 370.596 267.831 372.747 272.806" fill="#FFE7B1"/>
<path d="M346.709 284.068L372.747 272.806C370.595 267.833 367.976 263.207 364.961 258.954L341.829 275.387C343.719 278.053 345.361 280.95 346.709 284.068Z" fill="#FFEECA"/>
<path d="M318.697 291.821C319.462 292.899 320.126 294.07 320.671 295.331L346.709 284.068C345.361 280.951 343.719 278.053 341.829 275.387L318.697 291.821" fill="#FFF6E3"/>
<path d="M526.837 143.953L549.964 127.522C537.452 109.912 523.403 94.0415 508.13 79.9633L488.918 100.846C502.765 113.604 515.498 127.99 526.837 143.953" fill="#FFD000"/>
<path d="M503.71 160.382L526.837 143.954C515.499 127.991 502.763 113.608 488.919 100.847L469.71 121.731C482.125 133.173 493.543 146.069 503.71 160.382Z" fill="#FFD519"/>
<path d="M480.583 176.812L503.71 160.381C493.543 146.069 482.125 133.172 469.71 121.73L450.502 142.613C461.484 152.737 471.586 164.15 480.583 176.812" fill="#FFD932"/>
<path d="M457.456 193.243L480.583 176.812C471.586 164.15 461.483 152.738 450.501 142.613L431.293 163.499C440.845 172.303 449.63 182.228 457.456 193.243" fill="#FFDE4C"/>
<path d="M434.329 209.671L457.456 193.243C449.63 182.228 440.846 172.303 431.293 163.499L412.082 184.382C420.205 191.868 427.677 200.307 434.329 209.671" fill="#FFE365"/>
<path d="M411.202 226.103L434.329 209.672C427.677 200.307 420.204 191.868 412.082 184.382L392.873 205.266C399.566 211.433 405.72 218.388 411.202 226.103Z" fill="#FFE77E"/>
<path d="M388.075 242.534L411.202 226.103C405.721 218.386 399.566 211.434 392.873 205.266L373.665 226.149C378.926 230.999 383.767 236.467 388.075 242.534Z" fill="#FFEC97"/>
<path d="M364.948 258.965L388.075 242.534C383.767 236.467 378.925 230.999 373.664 226.149L354.453 247.032C358.285 250.564 361.811 254.545 364.948 258.965" fill="#FFF1B1"/>
<path d="M341.821 275.393L364.948 258.965C361.811 254.545 358.285 250.564 354.453 247.032L335.245 267.918C337.647 270.129 339.855 272.624 341.821 275.393" fill="#FFF5CA"/>
<path d="M316.036 288.802C317.006 289.695 317.901 290.705 318.697 291.824L341.821 275.393C339.855 272.624 337.646 270.13 335.245 267.918L316.036 288.802Z" fill="#FFFAE3"/>
<path d="M488.883 100.888L508.088 80.0105C492.188 65.3849 475.145 52.7797 457.279 42.187L442.83 66.6075C459.024 76.209 474.472 87.6323 488.883 100.888" fill="#FFDF00"/>
<path d="M469.677 121.769L488.883 100.888C474.472 87.6322 459.024 76.2116 442.83 66.6074L428.385 91.0279C442.904 99.6409 456.756 109.882 469.677 121.769Z" fill="#FFE219"/>
<path d="M450.471 142.646L469.677 121.769C456.753 109.883 442.904 99.6411 428.384 91.0281L413.936 115.451C426.783 123.068 439.037 132.13 450.471 142.646" fill="#FFE532"/>
<path d="M431.265 163.527L450.471 142.646C439.037 132.13 426.783 123.068 413.936 115.451L399.487 139.872C410.663 146.497 421.321 154.38 431.265 163.527Z" fill="#FFE84C"/>
<path d="M412.06 184.407L431.265 163.526C421.321 154.379 410.663 146.496 399.487 139.871L385.041 164.291C394.542 169.926 403.604 176.627 412.06 184.407Z" fill="#FFEB65"/>
<path d="M392.854 205.285L412.06 184.407C403.605 176.627 394.542 169.926 385.041 164.292L370.593 188.715C378.422 193.355 385.888 198.877 392.854 205.285" fill="#FFEF7E"/>
<path d="M373.651 226.165L392.854 205.285C385.888 198.877 378.422 193.355 370.593 188.715L356.144 213.135C362.301 216.784 368.172 221.125 373.651 226.165Z" fill="#FFF297"/>
<path d="M354.445 247.043L373.651 226.165C368.172 221.125 362.301 216.784 356.144 213.135L341.698 237.556C346.181 240.213 350.456 243.375 354.445 247.043Z" fill="#FFF5B1"/>
<path d="M335.239 267.924L354.445 247.043C350.456 243.375 346.18 240.214 341.698 237.556L327.25 261.979C330.06 263.643 332.739 265.626 335.239 267.924" fill="#FFF8CA"/>
<path d="M312.801 286.4C313.939 287.073 315.023 287.873 316.033 288.805L335.239 267.924C332.739 265.626 330.06 263.644 327.25 261.977L312.801 286.4Z" fill="#FFFBE3"/>
<path d="M442.803 66.6562L457.246 42.2412C438.656 31.24 419.366 22.4554 399.686 15.8084L390.632 42.6987C408.468 48.7249 425.95 56.6871 442.803 66.6562Z" fill="#FFED00"/>
<path d="M428.358 91.0713L442.804 66.6563C425.95 56.6871 408.468 48.7249 390.632 42.6988L381.578 69.5918C397.571 74.9943 413.247 82.1342 428.358 91.0713" fill="#FFEF19"/>
<path d="M413.914 115.489L428.357 91.0715C413.247 82.1344 397.57 74.9946 381.578 69.592L372.523 96.4823C386.672 101.264 400.544 107.579 413.914 115.489Z" fill="#FFF132"/>
<path d="M399.469 139.904L413.914 115.489C400.544 107.578 386.673 101.264 372.524 96.4818L363.47 123.375C375.775 127.53 387.841 133.025 399.469 139.904Z" fill="#FFF24C"/>
<path d="M385.026 164.322L399.469 139.904C387.841 133.026 375.775 127.53 363.47 123.375L354.413 150.265C364.88 153.8 375.138 158.473 385.026 164.322Z" fill="#FFF465"/>
<path d="M370.579 188.737L385.025 164.322C375.138 158.473 364.88 153.8 354.412 150.265L345.358 177.156C353.982 180.069 362.434 183.917 370.579 188.737" fill="#FFF67E"/>
<path d="M356.134 213.151L370.58 188.736C362.435 183.916 353.983 180.069 345.359 177.155L336.304 204.048C343.085 206.338 349.729 209.364 356.134 213.151" fill="#FFF897"/>
<path d="M341.69 237.569L356.133 213.152C349.729 209.364 343.084 206.339 336.304 204.048L327.25 230.939C332.187 232.608 337.026 234.811 341.69 237.569Z" fill="#FFF9B1"/>
<path d="M327.247 261.984L341.69 237.569C337.026 234.811 332.187 232.608 327.25 230.939L318.196 257.832C321.289 258.877 324.323 260.255 327.247 261.984" fill="#FFFBCA"/>
<path d="M309.141 284.722C310.391 285.144 311.619 285.703 312.801 286.402L327.244 261.985C324.322 260.255 321.289 258.875 318.195 257.832L309.141 284.722Z" fill="#FFFDE3"/>
<path d="M390.613 42.7529L399.667 15.8654C379.192 8.97329 358.497 4.39037 337.867 1.98046L334.602 30.1669C353.301 32.3508 372.058 36.5035 390.613 42.7529" fill="#DCED00"/>
<path d="M381.561 69.6382L390.613 42.7534C372.058 36.5039 353.301 32.3512 334.602 30.1673L331.334 58.3511C348.103 60.3117 364.921 64.0368 381.561 69.6382" fill="#DFEF19"/>
<path d="M372.507 96.5229L381.561 69.6381C364.921 64.0368 348.103 60.3116 331.334 58.351L328.069 86.5402C342.905 88.2721 357.786 91.567 372.507 96.5229" fill="#E3F132"/>
<path d="M363.456 123.41L372.507 96.5221C357.786 91.5661 342.905 88.2712 328.07 86.5394L324.805 114.723C337.709 116.232 350.652 119.099 363.456 123.41" fill="#E6F24C"/>
<path d="M354.404 150.295L363.456 123.41C350.652 119.099 337.709 116.232 324.805 114.724L321.54 142.91C332.511 144.193 343.515 146.63 354.404 150.295Z" fill="#EAF465"/>
<path d="M345.35 177.183L354.405 150.296C343.515 146.63 332.511 144.193 321.54 142.911L318.275 171.097C327.313 172.154 336.381 174.161 345.35 177.183" fill="#EDF67E"/>
<path d="M336.299 204.068L345.35 177.183C336.38 174.16 327.312 172.154 318.275 171.097L315.007 199.283C322.117 200.114 329.246 201.693 336.299 204.068" fill="#F1F897"/>
<path d="M327.244 230.953L336.299 204.068C329.246 201.694 322.117 200.114 315.007 199.284L311.742 227.47C316.918 228.075 322.109 229.224 327.244 230.953Z" fill="#F4F9B1"/>
<path d="M318.193 257.84L327.244 230.952C322.109 229.223 316.919 228.074 311.742 227.469L308.477 255.656C311.72 256.037 314.974 256.756 318.193 257.84" fill="#F8FBCA"/>
<path d="M305.212 283.843C306.522 283.998 307.84 284.287 309.142 284.725L318.193 257.84C314.974 256.756 311.72 256.038 308.477 255.656L305.212 283.843Z" fill="#FBFDE3"/>
<path d="M334.594 30.2212L337.859 2.04018C316.401 -0.445984 295.205 -0.622968 274.523 1.30769L277.189 29.5541C295.934 27.8058 315.146 27.9692 334.594 30.2212" fill="#BADF00"/>
<path d="M331.329 58.4023L334.594 30.2213C315.146 27.9694 295.935 27.806 277.189 29.5569L279.855 57.806C296.665 56.2348 313.891 56.3818 331.329 58.4023Z" fill="#C1E219"/>
<path d="M328.064 86.584L331.329 58.403C313.891 56.3825 296.664 56.2354 279.855 57.8066L282.521 86.0557C297.394 84.667 312.635 84.7949 328.064 86.584" fill="#C8E532"/>
<path d="M324.799 114.762L328.064 86.5839C312.635 84.7949 297.394 84.6669 282.521 86.0557L285.186 114.305C298.124 113.096 311.38 113.207 324.799 114.762" fill="#CEE84C"/>
<path d="M321.534 142.942L324.799 114.761C311.38 113.209 298.124 113.095 285.187 114.304L287.852 142.553C298.854 141.526 310.124 141.622 321.534 142.942Z" fill="#D5EB65"/>
<path d="M318.269 171.124L321.534 142.943C310.125 141.622 298.854 141.527 287.853 142.554L290.518 170.803C299.581 169.956 308.869 170.035 318.269 171.124" fill="#DCEF7E"/>
<path d="M315.004 199.305L318.269 171.124C308.869 170.035 299.581 169.956 290.518 170.803L293.187 199.052C300.31 198.388 307.614 198.447 315.004 199.305Z" fill="#E3F297"/>
<path d="M311.742 227.486L315.004 199.305C307.614 198.447 300.31 198.387 293.187 199.052L295.853 227.301C301.04 226.816 306.358 226.862 311.742 227.486Z" fill="#E9F5B1"/>
<path d="M308.475 255.664L311.742 227.486C306.359 226.862 301.041 226.816 295.853 227.301L298.519 255.55C301.771 255.247 305.103 255.275 308.475 255.664Z" fill="#F0F8CA"/>
<path d="M301.185 283.802C302.5 283.679 303.848 283.687 305.212 283.845L308.474 255.664C305.103 255.275 301.77 255.248 298.519 255.55L301.185 283.802Z" fill="#F7FBE3"/>
<path d="M277.195 29.6121L274.529 1.36847C253.022 3.39988 232.253 7.6288 212.424 13.821L220.906 40.8965C238.878 35.287 257.703 31.4529 277.195 29.6121Z" fill="#70C700"/>
<path d="M279.86 57.8547L277.195 29.6111C257.703 31.4519 238.878 35.286 220.906 40.8955L229.388 67.9736C245.503 62.9441 262.381 59.5049 279.86 57.8547" fill="#7ECD19"/>
<path d="M282.526 86.0988L279.86 57.8551C262.381 59.5053 245.503 62.9445 229.388 67.974L237.868 95.0522C252.126 90.6 267.062 87.5583 282.526 86.0988Z" fill="#8CD232"/>
<path d="M285.192 114.343L282.526 86.0992C267.062 87.5588 252.126 90.6005 237.868 95.0527L246.35 122.131C258.751 118.259 271.74 115.612 285.192 114.343" fill="#9AD84C"/>
<path d="M287.858 142.586L285.192 114.343C271.74 115.612 258.751 118.258 246.351 122.131L254.83 149.206C265.377 145.917 276.419 143.665 287.858 142.586Z" fill="#A8DD65"/>
<path d="M290.524 170.83L287.858 142.587C276.418 143.665 265.376 145.917 254.83 149.207L263.312 176.285C271.999 173.572 281.099 171.718 290.524 170.83Z" fill="#B7E37E"/>
<path d="M293.187 199.073L290.521 170.829C281.099 171.717 271.999 173.571 263.312 176.284L271.792 203.362C278.624 201.23 285.777 199.773 293.187 199.073" fill="#C5E897"/>
<path d="M295.853 227.317L293.187 199.073C285.778 199.773 278.624 201.23 271.792 203.362L280.274 230.44C285.249 228.888 290.459 227.826 295.853 227.317" fill="#D3EEB1"/>
<path d="M298.519 255.561L295.853 227.317C290.459 227.826 285.249 228.888 280.274 230.44L288.757 257.519C291.872 256.544 295.137 255.879 298.519 255.561Z" fill="#E1F3CA"/>
<path d="M297.236 284.597C298.497 284.202 299.818 283.933 301.185 283.805L298.519 255.561C295.137 255.88 291.872 256.544 288.757 257.519L297.236 284.597" fill="#EFF9E3"/>
<path d="M220.922 40.9506L212.443 13.8779C191.829 20.3343 172.392 28.7921 154.283 38.9682L168.209 63.6909C184.624 54.4679 202.239 46.8025 220.922 40.9506" fill="#3BBE00"/>
<path d="M229.402 68.0238L220.923 40.951C202.24 46.8029 184.624 54.4683 168.21 63.6913L182.135 88.4141C196.854 80.1441 212.647 73.2711 229.402 68.0238Z" fill="#4EC419"/>
<path d="M237.881 95.0937L229.402 68.0237C212.647 73.271 196.853 80.144 182.135 88.414L196.061 113.137C209.082 105.82 223.057 99.7365 237.881 95.0937Z" fill="#62CB32"/>
<path d="M246.361 122.166L237.882 95.0931C223.057 99.7359 209.082 105.819 196.061 113.136L209.987 137.859C221.312 131.495 233.468 126.204 246.361 122.166Z" fill="#75D14C"/>
<path d="M254.841 149.239L246.361 122.166C233.467 126.205 221.312 131.495 209.986 137.859L223.912 162.582C233.544 157.169 243.878 152.673 254.841 149.239Z" fill="#88D865"/>
<path d="M263.32 176.312L254.841 149.239C243.878 152.673 233.544 157.169 223.912 162.582L237.838 187.305C245.773 182.847 254.288 179.138 263.32 176.312Z" fill="#9CDE7E"/>
<path d="M271.8 203.381L263.321 176.311C254.288 179.138 245.773 182.846 237.838 187.304L251.764 212.027C258.003 208.52 264.699 205.606 271.8 203.381Z" fill="#AFE597"/>
<path d="M280.279 230.454L271.8 203.382C264.698 205.606 258.002 208.52 251.763 212.027L265.689 236.75C270.231 234.196 275.106 232.075 280.279 230.454Z" fill="#C2EBB1"/>
<path d="M288.759 257.527L280.277 230.454C275.106 232.074 270.232 234.196 265.689 236.75L279.615 261.473C282.461 259.871 285.516 258.543 288.759 257.527" fill="#D6F2CA"/>
<path d="M293.542 286.196C294.693 285.548 295.927 285.009 297.239 284.6L288.76 257.527C285.517 258.543 282.461 259.872 279.616 261.473L293.542 286.196" fill="#E9F8E3"/>
<path d="M168.237 63.7396L154.314 39.0223C135.492 49.6232 118.241 61.9369 102.644 75.6557L121.405 96.9419C135.541 84.5084 151.179 73.3493 168.237 63.7396" fill="#00B600"/>
<path d="M182.16 88.4572L168.236 63.74C151.179 73.3497 135.541 84.5088 121.405 96.9423L140.167 118.229C152.843 107.08 166.864 97.073 182.16 88.4572Z" fill="#19BD19"/>
<path d="M196.082 113.174L182.159 88.4569C166.864 97.0726 152.843 107.08 140.167 118.231L158.926 139.517C170.142 129.651 182.549 120.799 196.082 113.174" fill="#32C432"/>
<path d="M210.006 137.892L196.083 113.175C182.549 120.799 170.143 129.652 158.927 139.517L177.688 160.804C187.445 152.223 198.234 144.522 210.006 137.892Z" fill="#4CCC4C"/>
<path d="M223.929 162.609L210.006 137.891C198.234 144.522 187.445 152.223 177.688 160.803L196.45 182.092C204.745 174.794 213.919 168.248 223.929 162.609" fill="#65D365"/>
<path d="M237.851 187.326L223.928 162.609C213.918 168.249 204.744 174.795 196.45 182.093L215.212 203.379C222.047 197.366 229.603 191.972 237.851 187.326" fill="#7EDA7E"/>
<path d="M251.775 212.043L237.852 187.326C229.604 191.971 222.047 197.366 215.212 203.378L233.974 224.665C239.347 219.94 245.289 215.697 251.775 212.043Z" fill="#97E197"/>
<path d="M265.695 236.761L251.775 212.044C245.288 215.698 239.347 219.941 233.974 224.665L252.736 245.954C256.646 242.512 260.976 239.421 265.695 236.761" fill="#B1E9B1"/>
<path d="M279.62 261.48L265.695 236.76C260.976 239.421 256.646 242.512 252.736 245.954L271.495 267.24C273.948 265.083 276.66 263.147 279.62 261.48Z" fill="#CAF0CA"/>
<path d="M290.257 288.526C291.248 287.655 292.346 286.871 293.541 286.198L279.618 261.478C276.661 263.147 273.949 265.083 271.495 267.24L290.257 288.526" fill="#E3F7E3"/>
<path d="M121.441 96.9855L102.684 75.702C86.4764 89.9845 72.1613 105.615 59.7577 122.277L82.5362 139.201C93.777 124.099 106.752 109.931 121.441 96.9855Z" fill="#00BD4F"/>
<path d="M140.2 118.269L121.441 96.9855C106.752 109.931 93.7771 124.099 82.5363 139.201L105.312 156.12C115.395 142.581 127.028 129.877 140.2 118.269" fill="#19C460"/>
<path d="M158.957 139.55L140.2 118.269C127.029 129.877 115.396 142.581 105.312 156.12L128.091 173.043C137.011 161.062 147.305 149.821 158.957 139.55Z" fill="#32CA72"/>
<path d="M177.716 160.834L158.957 139.551C147.302 149.822 137.011 161.063 128.091 173.044L150.869 189.965C158.627 179.544 167.578 169.766 177.716 160.834" fill="#4CD183"/>
<path d="M196.472 182.114L177.716 160.833C167.578 169.765 158.627 179.544 150.869 189.965L173.645 206.883C180.243 198.025 187.854 189.712 196.472 182.114" fill="#65D794"/>
<path d="M215.228 203.398L196.472 182.114C187.853 189.712 180.242 198.025 173.644 206.883L196.423 223.807C201.858 216.507 208.129 209.655 215.228 203.398" fill="#7EDEA6"/>
<path d="M233.988 224.681L215.228 203.398C208.129 209.656 201.858 216.507 196.423 223.807L219.199 240.729C223.474 234.988 228.403 229.602 233.988 224.681Z" fill="#97E4B7"/>
<path d="M252.744 245.965L233.987 224.681C228.402 229.602 223.474 234.988 219.198 240.728L241.977 257.649C245.089 253.47 248.678 249.548 252.744 245.965Z" fill="#B1EBC8"/>
<path d="M271.5 267.245L252.744 245.964C248.678 249.548 245.086 253.469 241.977 257.649L264.752 274.57C266.705 271.951 268.954 269.492 271.5 267.245" fill="#CAF1DA"/>
<path d="M287.531 291.492C288.321 290.433 289.228 289.439 290.26 288.53L271.501 267.246C268.955 269.493 266.703 271.951 264.753 274.571L287.531 291.492Z" fill="#E3F8EB"/>
<path d="M82.5793 139.234L59.8091 122.315C46.9262 139.656 36.1728 157.922 27.5053 176.798L53.3009 188.614C61.1597 171.505 70.9028 154.951 82.5793 139.234" fill="#00C6A0"/>
<path d="M105.353 156.153L82.5797 139.235C70.9032 154.952 61.16 171.506 53.3013 188.615L79.0996 200.43C86.1442 185.088 94.8825 170.245 105.353 156.153" fill="#19CCA9"/>
<path d="M128.125 173.069L105.352 156.153C94.8821 170.245 86.1438 185.088 79.0992 200.43L104.898 212.248C111.131 198.674 118.861 185.538 128.125 173.069Z" fill="#32D1B3"/>
<path d="M150.899 189.986L128.126 173.068C118.862 185.537 111.131 198.673 104.898 212.248L130.697 224.063C136.116 212.256 142.842 200.832 150.899 189.986Z" fill="#4CD7BC"/>
<path d="M173.672 206.905L150.899 189.987C142.841 200.833 136.118 212.256 130.696 224.063L156.492 235.878C161.102 225.838 166.821 216.125 173.672 206.905" fill="#65DDC5"/>
<path d="M196.442 223.821L173.672 206.906C166.821 216.126 161.102 225.839 156.492 235.879L182.291 247.694C186.089 239.424 190.8 231.421 196.442 223.821" fill="#7EE2CF"/>
<path d="M219.215 240.739L196.442 223.821C190.8 231.421 186.089 239.424 182.29 247.694L208.089 259.509C211.073 253.007 214.779 246.714 219.215 240.739Z" fill="#97E8D8"/>
<path d="M241.988 257.657L219.215 240.739C214.779 246.713 211.073 253.006 208.088 259.509L233.887 271.324C236.06 266.589 238.756 262.006 241.988 257.657" fill="#B1EEE1"/>
<path d="M264.761 274.576L241.988 257.658C238.756 262.006 236.06 266.589 233.887 271.325L259.683 283.14C261.047 280.175 262.736 277.302 264.761 274.576Z" fill="#CAF3EB"/>
<path d="M285.481 294.958C286.031 293.758 286.714 292.595 287.534 291.492L264.761 274.574C262.735 277.302 261.047 280.172 259.682 283.14L285.481 294.958" fill="#E3F9F4"/>
<path d="M53.3531 188.639L27.5602 176.826C18.5659 196.465 11.8454 216.567 7.28967 236.834L34.9806 243.029C39.1087 224.659 45.2002 206.439 53.3531 188.639" fill="#00AFCF"/>
<path d="M79.1459 200.452L53.353 188.639C45.2001 206.44 39.1086 224.66 34.9805 243.03L62.6713 249.222C66.372 232.75 71.8344 216.415 79.1459 200.452" fill="#19B7D4"/>
<path d="M104.936 212.264L79.1456 200.451C71.8341 216.414 66.3717 232.75 62.671 249.222L90.3619 255.417C93.6378 240.843 98.4684 226.389 104.936 212.264Z" fill="#32BFD9"/>
<path d="M130.729 224.079L104.936 212.264C98.4684 226.388 93.6377 240.842 90.3618 255.416L118.053 261.608C120.901 248.935 125.103 236.363 130.729 224.079" fill="#4CC7DD"/>
<path d="M156.522 235.893L130.729 224.08C125.103 236.364 120.901 248.936 118.053 261.609L145.744 267.804C148.165 257.026 151.737 246.336 156.522 235.893Z" fill="#65CFE2"/>
<path d="M182.315 247.705L156.522 235.892C151.738 246.335 148.165 257.026 145.744 267.804L173.435 273.999C175.428 265.119 178.372 256.309 182.315 247.705" fill="#7ED6E7"/>
<path d="M208.108 259.517L182.315 247.704C178.372 256.309 175.428 265.118 173.432 273.998L201.123 280.19C202.694 273.208 205.006 266.284 208.108 259.517" fill="#97DEEC"/>
<path d="M233.9 271.33L208.107 259.518C205.006 266.285 202.694 273.209 201.123 280.191L228.814 286.386C229.957 281.302 231.643 276.259 233.9 271.33Z" fill="#B1E6F0"/>
<path d="M259.69 283.145L233.897 271.33C231.643 276.259 229.957 281.302 228.813 286.386L256.504 292.578C257.22 289.392 258.277 286.233 259.69 283.145Z" fill="#CAEEF5"/>
<path d="M284.195 298.774C284.484 297.486 284.912 296.206 285.483 294.959L259.691 283.146C258.277 286.234 257.221 289.393 256.505 292.579L284.195 298.774" fill="#E3F6FA"/>
<path d="M35.035 243.04L7.34955 236.848C2.63593 257.93 0.242353 278.99 0 299.759L28.3744 300.061C28.5922 281.236 30.7625 262.148 35.035 243.04" fill="#009BCC"/>
<path d="M62.7204 249.232L35.0349 243.04C30.7624 262.148 28.5922 281.236 28.3743 300.061L56.7459 300.363C56.942 283.48 58.8863 266.366 62.7204 249.232" fill="#19A5D1"/>
<path d="M90.4056 255.425L62.7202 249.233C58.8861 266.367 56.9418 283.481 56.7457 300.364L85.1201 300.664C85.2917 285.73 87.0126 270.585 90.4056 255.425Z" fill="#32AFD6"/>
<path d="M118.091 261.617L90.4059 255.425C87.013 270.584 85.292 285.73 85.1205 300.663L113.492 300.965C113.645 287.976 115.14 274.805 118.091 261.617" fill="#4CB9DB"/>
<path d="M145.774 267.812L118.092 261.617C115.14 274.805 113.645 287.974 113.492 300.965L141.867 301.268C141.995 290.22 143.266 279.023 145.774 267.812Z" fill="#65C3E0"/>
<path d="M173.459 274.004L145.774 267.812C143.266 279.023 141.994 290.22 141.866 301.267L170.24 301.567C170.344 292.466 171.392 283.241 173.459 274.004" fill="#7ECCE5"/>
<path d="M201.145 280.196L173.46 274.004C171.393 283.241 170.344 292.466 170.241 301.567L198.613 301.869C198.697 294.713 199.519 287.459 201.145 280.196Z" fill="#97D6EA"/>
<path d="M228.83 286.389L201.145 280.196C199.519 287.459 198.697 294.713 198.612 301.869L226.987 302.171C227.047 296.959 227.646 291.677 228.83 286.389" fill="#B1E0EF"/>
<path d="M256.513 292.582L228.83 286.389C227.646 291.678 227.046 296.96 226.987 302.172L255.358 302.475C255.396 299.207 255.772 295.896 256.513 292.582" fill="#CAEAF4"/>
<path d="M283.733 302.773C283.749 301.453 283.899 300.116 284.198 298.773L256.513 292.581C255.772 295.895 255.396 299.206 255.358 302.474L283.733 302.773Z" fill="#E3F4F9"/>
<path d="M28.4289 300.061L0.0627061 299.762C-0.168755 321.361 1.87079 342.46 5.95267 362.828L33.7688 357.221C30.0682 338.762 28.2219 319.64 28.4289 300.061" fill="#0087C3"/>
<path d="M56.7947 300.364L28.4285 300.062C28.2215 319.641 30.0677 338.762 33.7684 357.222L61.5845 351.618C58.2651 335.067 56.6095 317.92 56.7947 300.364Z" fill="#1993C9"/>
<path d="M85.1639 300.666L56.795 300.364C56.6098 317.919 58.2654 335.066 61.5849 351.617L89.3983 346.013C86.4628 331.368 84.9978 316.198 85.1639 300.666" fill="#329FCF"/>
<path d="M113.53 300.965L85.1641 300.663C84.998 316.198 86.463 331.368 89.3985 346.013L117.215 340.409C114.663 327.67 113.389 314.477 113.53 300.965" fill="#4CABD5"/>
<path d="M141.899 301.267L113.53 300.965C113.388 314.477 114.663 327.67 117.214 340.409L145.03 334.805C142.86 323.972 141.776 312.753 141.899 301.267" fill="#65B7DB"/>
<path d="M170.265 301.567L141.899 301.268C141.776 312.754 142.86 323.973 145.03 334.805L172.847 329.201C171.058 320.278 170.164 311.033 170.265 301.567Z" fill="#7EC2E0"/>
<path d="M198.634 301.869L170.265 301.567C170.165 311.032 171.058 320.277 172.847 329.201L200.663 323.597C199.258 316.579 198.555 309.311 198.634 301.869" fill="#97CEE6"/>
<path d="M227 302.172L198.634 301.869C198.555 309.312 199.257 316.579 200.662 323.597L228.478 317.993C227.455 312.881 226.943 307.591 227 302.172Z" fill="#B1DAEC"/>
<path d="M255.369 302.472L227 302.172C226.943 307.591 227.455 312.882 228.479 317.993L256.295 312.389C255.652 309.187 255.331 305.87 255.369 302.472Z" fill="#CAE6F2"/>
<path d="M284.111 306.782C283.853 305.488 283.722 304.149 283.736 302.774L255.369 302.471C255.331 305.87 255.653 309.186 256.295 312.389L284.111 306.782Z" fill="#E3F2F8"/>
<path d="M33.823 357.21L6.01233 362.814C10.2794 383.992 16.6595 404.202 24.8859 423.277L50.9293 412.012C43.4708 394.726 37.6898 376.405 33.823 357.21Z" fill="#0074BF"/>
<path d="M61.6338 351.609L33.8231 357.21C37.6899 376.405 43.4709 394.726 50.9294 412.012L76.9728 400.746C70.285 385.247 65.1003 368.818 61.6338 351.609" fill="#1982C5"/>
<path d="M89.442 346.005L61.634 351.609C65.1005 368.819 70.2852 385.247 76.9731 400.747L103.014 389.482C97.0992 375.768 92.5109 361.233 89.442 346.005" fill="#3290CC"/>
<path d="M117.252 340.401L89.4413 346.005C92.5102 361.232 97.0985 375.768 103.013 389.481L129.056 378.216C123.91 366.289 119.921 353.646 117.252 340.401Z" fill="#4C9DD2"/>
<path d="M145.064 334.799L117.253 340.401C119.921 353.646 123.911 366.289 129.057 378.216L155.101 366.951C150.725 356.81 147.332 346.059 145.064 334.799" fill="#65ABD8"/>
<path d="M172.874 329.195L145.063 334.799C147.332 346.059 150.724 356.809 155.1 366.95L181.144 355.685C177.539 347.33 174.742 338.475 172.874 329.195Z" fill="#7EB9DF"/>
<path d="M200.682 323.591L172.874 329.195C174.742 338.475 177.538 347.328 181.144 355.685L207.187 344.422C204.352 337.849 202.152 330.886 200.682 323.591Z" fill="#97C7E5"/>
<path d="M228.493 317.99L200.682 323.591C202.152 330.886 204.353 337.849 207.187 344.422L233.228 333.157C231.164 328.373 229.563 323.302 228.493 317.99" fill="#B1D4EB"/>
<path d="M256.303 312.386L228.492 317.99C229.562 323.303 231.164 328.373 233.228 333.158L259.271 321.892C257.978 318.892 256.973 315.716 256.303 312.386" fill="#CAE2F2"/>
<path d="M285.315 310.627C284.792 309.415 284.386 308.13 284.114 306.782L256.303 312.386C256.973 315.716 257.978 318.891 259.271 321.892L285.315 310.627Z" fill="#E3F0F8"/>
<path d="M50.9814 411.99L24.9434 423.253C33.5184 443.08 43.9613 461.526 55.9755 478.471L79.1079 462.038C68.2184 446.679 58.753 429.96 50.9814 411.99" fill="#0040BA"/>
<path d="M77.0166 400.727L50.9813 411.99C58.753 429.959 68.2183 446.679 79.1079 462.037L102.238 445.603C92.4754 431.83 83.9876 416.84 77.0166 400.727" fill="#1953C1"/>
<path d="M103.054 389.465L77.019 400.728C83.9874 416.84 92.4752 431.831 102.237 445.604L125.37 429.17C116.732 416.985 109.222 403.723 103.054 389.465" fill="#3266C8"/>
<path d="M129.092 378.202L103.054 389.465C109.222 403.723 116.732 416.984 125.37 429.17L148.502 412.736C140.987 402.138 134.457 390.603 129.092 378.202" fill="#4C79CE"/>
<path d="M155.131 366.94L129.093 378.203C134.457 390.604 140.987 402.139 148.503 412.737L171.633 396.303C165.244 387.292 159.692 377.484 155.131 366.94" fill="#658CD5"/>
<path d="M181.168 355.674L155.13 366.939C159.691 377.483 165.244 387.292 171.632 396.302L194.764 379.869C189.501 372.445 184.926 364.363 181.168 355.674Z" fill="#7E9EDC"/>
<path d="M207.204 344.412L181.168 355.675C184.926 364.364 189.501 372.446 194.765 379.869L217.897 363.435C213.758 357.597 210.158 351.244 207.204 344.412" fill="#97B1E3"/>
<path d="M233.242 333.149L207.204 344.412C210.158 351.244 213.758 357.597 217.897 363.435L241.027 347.001C238.015 342.751 235.393 338.124 233.242 333.149" fill="#B1C4E9"/>
<path d="M259.28 321.889L233.242 333.149C235.393 338.124 238.015 342.75 241.027 347.001L264.159 330.567C262.269 327.904 260.627 325.004 259.28 321.889Z" fill="#CAD7F0"/>
<path d="M287.292 314.134C286.526 313.059 285.862 311.885 285.317 310.624L259.279 321.887C260.627 325.005 262.269 327.905 264.159 330.568L287.292 314.134" fill="#E3EAF7"/>
<path d="M79.1517 462.005L56.0247 478.436C68.5371 496.046 82.5855 511.916 97.8591 525.995L117.07 505.111C103.226 492.351 90.4932 477.968 79.1517 462.005Z" fill="#0229BA"/>
<path d="M102.278 445.574L79.1511 462.005C90.4927 477.967 103.226 492.351 117.07 505.111L136.278 484.225C123.864 472.785 112.446 459.886 102.278 445.574Z" fill="#1B3EC1"/>
<path d="M125.406 429.146L102.279 445.574C112.446 459.886 123.864 472.785 136.279 484.225L155.487 463.342C144.505 453.22 134.403 441.808 125.406 429.146Z" fill="#3453C8"/>
<path d="M148.532 412.714L125.405 429.145C134.402 441.807 144.505 453.22 155.487 463.341L174.698 442.458C165.143 433.654 156.358 423.729 148.532 412.714Z" fill="#4D68CE"/>
<path d="M171.659 396.284L148.532 412.714C156.359 423.729 165.143 433.655 174.698 442.458L193.907 421.575C185.784 414.09 178.312 405.648 171.659 396.284" fill="#667DD5"/>
<path d="M194.786 379.852L171.659 396.283C178.311 405.648 185.783 414.089 193.906 421.575L213.115 400.692C206.424 394.522 200.267 387.57 194.786 379.852Z" fill="#7F93DC"/>
<path d="M217.913 363.424L194.786 379.853C200.268 387.57 206.425 394.522 213.115 400.692L232.327 379.806C227.063 374.957 222.224 369.491 217.913 363.424" fill="#98A8E3"/>
<path d="M241.04 346.994L217.913 363.425C222.224 369.492 227.063 374.957 232.327 379.807L251.535 358.923C247.704 355.392 244.177 351.41 241.04 346.994Z" fill="#B1BDE9"/>
<path d="M264.167 330.562L241.04 346.993C244.177 351.41 247.704 355.391 251.535 358.923L270.744 338.04C268.342 335.826 266.133 333.331 264.167 330.562Z" fill="#CAD2F0"/>
<path d="M289.955 317.157C288.983 316.261 288.089 315.253 287.294 314.134L264.167 330.563C266.133 333.332 268.342 335.826 270.743 338.04L289.955 317.157" fill="#E3E7F7"/>
<path d="M117.108 505.067L97.9023 525.948C113.802 540.573 130.843 553.176 148.709 563.771L163.158 539.348C146.964 529.746 131.519 518.323 117.108 505.067Z" fill="#4D22B3"/>
<path d="M136.311 484.19L117.108 505.067C131.519 518.323 146.964 529.747 163.158 539.348L177.604 514.928C163.084 506.317 149.235 496.076 136.311 484.19" fill="#5F38BB"/>
<path d="M155.517 463.309L136.314 484.189C149.235 496.075 163.084 506.317 177.606 514.927L192.052 490.507C179.205 482.888 166.951 473.825 155.517 463.309Z" fill="#704EC2"/>
<path d="M174.723 442.432L155.517 463.309C166.951 473.826 179.205 482.888 192.052 490.507L206.501 466.084C195.325 459.459 184.667 451.578 174.723 442.432Z" fill="#8263CA"/>
<path d="M193.928 421.551L174.722 442.431C184.667 451.578 195.325 459.459 206.501 466.084L220.946 441.664C211.446 436.03 202.383 429.328 193.928 421.551Z" fill="#9379D1"/>
<path d="M213.135 400.671L193.929 421.552C202.384 429.329 211.446 436.03 220.947 441.664L235.396 417.244C227.567 412.601 220.1 407.081 213.135 400.671" fill="#A58FD9"/>
<path d="M232.34 379.793L213.134 400.671C220.1 407.081 227.567 412.6 235.395 417.243L249.844 392.823C243.687 389.171 237.816 384.83 232.34 379.793" fill="#B6A5E0"/>
<path d="M251.546 358.912L232.341 379.792C237.817 384.83 243.688 389.171 249.844 392.822L264.29 368.399C259.808 365.741 255.533 362.583 251.546 358.912" fill="#C8BAE8"/>
<path d="M270.749 338.034L251.546 358.912C255.533 362.583 259.808 365.742 264.293 368.399L278.739 343.979C275.931 342.312 273.249 340.333 270.749 338.034" fill="#D9D0EF"/>
<path d="M293.187 319.558C292.052 318.883 290.968 318.082 289.955 317.154L270.749 338.034C273.249 340.332 275.929 342.312 278.739 343.979L293.187 319.558Z" fill="#EBE6F7"/>
<path d="M163.185 539.302L148.742 563.717C167.335 574.715 186.622 583.5 206.302 590.149L215.356 563.256C197.52 557.233 180.038 549.271 163.185 539.302Z" fill="#7524AF"/>
<path d="M177.631 514.884L163.186 539.302C180.039 549.271 197.521 557.233 215.357 563.256L224.414 536.366C208.418 530.963 192.742 523.824 177.631 514.884Z" fill="#833AB7"/>
<path d="M192.075 490.469L177.631 514.884C192.742 523.824 208.418 530.964 224.414 536.367L233.468 509.476C219.316 504.695 205.445 498.377 192.075 490.469" fill="#904FBF"/>
<path d="M206.52 466.051L192.074 490.469C205.444 498.376 219.316 504.694 233.467 509.476L242.522 482.583C230.213 478.424 218.147 472.932 206.52 466.051Z" fill="#9E65C7"/>
<path d="M220.963 441.636L206.52 466.051C218.147 472.932 230.213 478.424 242.521 482.583L251.575 455.692C241.111 452.155 230.853 447.485 220.963 441.636Z" fill="#AC7BCF"/>
<path d="M235.409 417.219L220.963 441.636C230.854 447.486 241.111 452.156 251.576 455.693L260.63 428.8C252.006 425.889 243.557 422.038 235.409 417.219" fill="#B990D6"/>
<path d="M249.855 392.804L235.409 417.219C243.556 422.038 252.006 425.889 260.63 428.8L269.684 401.91C262.904 399.619 256.26 396.594 249.855 392.804" fill="#C7A6DE"/>
<path d="M264.298 368.389L249.855 392.804C256.259 396.594 262.904 399.62 269.684 401.91L278.738 375.017C273.801 373.35 268.962 371.147 264.298 368.389" fill="#D5BCE6"/>
<path d="M278.744 343.97L264.298 368.388C268.963 371.147 273.802 373.35 278.739 375.016L287.793 348.126C284.7 347.08 281.666 345.7 278.744 343.97Z" fill="#E2D1EE"/>
<path d="M296.847 321.236C295.597 320.811 294.369 320.255 293.187 319.556L278.744 343.971C281.666 345.7 284.699 347.08 287.793 348.126L296.847 321.236Z" fill="#F0E7F6"/>
<path d="M215.375 563.205L206.321 590.089C226.796 596.984 247.491 601.564 268.121 603.977L271.389 575.791C252.687 573.604 233.93 569.451 215.375 563.205Z" fill="#A92BBC"/>
<path d="M224.427 536.317L215.375 563.205C233.93 569.451 252.687 573.604 271.389 575.791L274.654 547.604C257.885 545.643 241.068 541.921 224.427 536.317Z" fill="#B140C3"/>
<path d="M233.481 509.432L224.427 536.317C241.067 541.921 257.885 545.643 274.654 547.604L277.919 519.418C263.083 517.683 248.202 514.388 233.481 509.432" fill="#BA55C9"/>
<path d="M242.533 482.548L233.481 509.432C248.202 514.388 263.084 517.683 277.919 519.418L281.184 491.232C268.282 489.723 255.339 486.858 242.533 482.548Z" fill="#C26AD0"/>
<path d="M251.587 455.66L242.533 482.548C255.339 486.858 268.282 489.723 281.184 491.231L284.449 463.045C273.478 461.762 262.474 459.328 251.587 455.66" fill="#CB7FD7"/>
<path d="M260.638 428.776L251.587 455.66C262.474 459.328 273.478 461.763 284.449 463.045L287.717 434.859C278.676 433.802 269.608 431.795 260.638 428.776" fill="#D393DD"/>
<path d="M269.69 401.891L260.639 428.776C269.608 431.795 278.676 433.802 287.717 434.859L290.982 406.672C283.874 405.842 276.743 404.265 269.69 401.891Z" fill="#DCA8E4"/>
<path d="M278.744 375.003L269.689 401.89C276.742 404.265 283.874 405.841 290.981 406.672L294.246 378.485C289.069 377.881 283.879 376.732 278.744 375.003" fill="#E4BDEB"/>
<path d="M287.796 348.117L278.744 375.002C283.88 376.731 289.07 377.88 294.247 378.485L297.511 350.298C294.268 349.92 291.014 349.201 287.796 348.117" fill="#EDD2F1"/>
<path d="M300.779 322.112C299.466 321.96 298.151 321.669 296.849 321.233L287.795 348.118C291.014 349.201 294.268 349.92 297.511 350.299L300.779 322.112Z" fill="#F5E7F8"/>
<path d="M271.395 575.733L268.13 603.914C289.587 606.401 310.784 606.58 331.465 604.65L328.8 576.4C310.054 578.151 290.843 577.988 271.395 575.733" fill="#C82DB3"/>
<path d="M274.659 547.555L271.395 575.734C290.843 577.988 310.054 578.152 328.8 576.401L326.134 548.152C309.324 549.72 292.098 549.576 274.659 547.555Z" fill="#CD42BB"/>
<path d="M277.924 519.374L274.659 547.555C292.098 549.576 309.324 549.72 326.134 548.152L323.468 519.903C308.594 521.291 293.356 521.161 277.924 519.374" fill="#D357C2"/>
<path d="M281.189 491.193L277.924 519.374C293.356 521.16 308.594 521.291 323.468 519.902L320.802 491.651C307.864 492.86 294.611 492.748 281.189 491.193" fill="#D86BCA"/>
<path d="M284.454 463.012L281.189 491.193C294.611 492.747 307.864 492.859 320.802 491.65L318.136 463.401C307.135 464.43 295.867 464.335 284.454 463.012Z" fill="#DE80D1"/>
<path d="M287.719 434.831L284.454 463.012C295.866 464.335 307.135 464.431 318.136 463.401L315.47 435.152C306.408 435.999 297.122 435.92 287.719 434.831" fill="#E395D9"/>
<path d="M290.984 406.653L287.719 434.831C297.119 435.923 306.407 435.999 315.47 435.153L312.804 406.903C305.678 407.571 298.377 407.508 290.984 406.653Z" fill="#E9AAE0"/>
<path d="M294.249 378.471L290.984 406.652C298.377 407.507 305.678 407.57 312.804 406.903L310.135 378.654C304.948 379.139 299.632 379.095 294.249 378.471Z" fill="#EEBEE8"/>
<path d="M297.514 350.291L294.249 378.472C299.632 379.095 304.948 379.139 310.135 378.654L307.469 350.405C304.218 350.71 300.888 350.683 297.514 350.291" fill="#F4D3EF"/>
<path d="M304.803 322.156C303.488 322.279 302.143 322.268 300.779 322.11L297.514 350.291C300.888 350.683 304.218 350.71 307.469 350.405L304.803 322.156Z" fill="#F9E8F7"/>
<path d="M328.794 576.344L331.46 604.587C352.967 602.559 373.735 598.327 393.565 592.138L385.082 565.059C367.11 570.669 348.286 574.506 328.794 576.344Z" fill="#D2278D"/>
<path d="M326.128 548.1L328.794 576.344C348.285 574.506 367.11 570.669 385.082 565.059L376.6 537.984C360.487 543.013 343.607 546.453 326.128 548.1Z" fill="#D63C98"/>
<path d="M323.462 519.859L326.128 548.1C343.608 546.452 360.488 543.013 376.6 537.983L368.121 510.905C353.863 515.355 338.929 518.399 323.462 519.859Z" fill="#DB52A3"/>
<path d="M320.796 491.615L323.462 519.859C338.929 518.397 353.862 515.355 368.12 510.905L359.638 483.827C347.237 487.697 334.248 490.344 320.796 491.615Z" fill="#DF67AF"/>
<path d="M318.13 463.372L320.796 491.615C334.248 490.344 347.237 487.697 359.638 483.827L351.158 456.749C340.612 460.041 329.57 462.291 318.13 463.372Z" fill="#E47CBA"/>
<path d="M315.468 435.127L318.131 463.371C329.57 462.29 340.612 460.041 351.159 456.749L342.676 429.67C333.99 432.383 324.889 434.237 315.468 435.127" fill="#E892C5"/>
<path d="M312.801 406.884L315.467 435.128C324.889 434.237 333.989 432.383 342.676 429.671L334.196 402.593C327.364 404.725 320.21 406.184 312.801 406.884Z" fill="#EDA7D0"/>
<path d="M310.135 378.64L312.801 406.884C320.211 406.184 327.364 404.724 334.197 402.592L325.714 375.517C320.739 377.069 315.53 378.131 310.135 378.64" fill="#F1BCDC"/>
<path d="M307.47 350.397L310.136 378.641C315.53 378.132 320.739 377.07 325.715 375.518L317.235 348.44C314.117 349.412 310.852 350.079 307.47 350.397Z" fill="#F6D2E7"/>
<path d="M308.752 321.361C307.491 321.753 306.17 322.026 304.803 322.154L307.469 350.397C310.851 350.079 314.116 349.412 317.234 348.44L308.752 321.361" fill="#FAE7F2"/>
<path d="M385.066 565.007L393.546 592.08C414.16 585.621 433.597 577.166 451.705 566.99L437.78 542.267C421.365 551.49 403.752 559.155 385.066 565.007Z" fill="#E5276F"/>
<path d="M376.587 537.935L385.066 565.008C403.752 559.153 421.365 551.491 437.779 542.267L423.854 517.545C409.135 525.815 393.342 532.688 376.587 537.935" fill="#E83C7D"/>
<path d="M368.107 510.862L376.586 537.935C393.341 532.687 409.135 525.814 423.853 517.544L409.928 492.822C396.906 500.138 382.931 506.219 368.107 510.862" fill="#EA528B"/>
<path d="M359.627 483.792L368.107 510.862C382.931 506.219 396.906 500.138 409.928 492.822L396.002 468.099C384.677 474.463 372.521 479.751 359.627 483.792" fill="#ED679A"/>
<path d="M351.147 456.72L359.627 483.792C372.521 479.751 384.677 474.463 396.002 468.099L382.076 443.377C372.447 448.787 362.111 453.286 351.147 456.72Z" fill="#EF7CA8"/>
<path d="M342.668 429.646L351.147 456.719C362.11 453.285 372.447 448.786 382.076 443.376L368.15 418.653C360.215 423.111 351.7 426.817 342.668 429.646Z" fill="#F292B6"/>
<path d="M334.188 402.574L342.668 429.646C351.7 426.817 360.215 423.111 368.15 418.653L354.225 393.931C347.986 397.435 341.293 400.349 334.188 402.574Z" fill="#F4A7C4"/>
<path d="M325.711 375.502L334.188 402.574C341.292 400.349 347.986 397.436 354.224 393.931L340.298 369.208C335.756 371.76 330.882 373.884 325.711 375.502" fill="#F7BCD3"/>
<path d="M317.232 348.431L325.711 375.501C330.882 373.884 335.757 371.76 340.299 369.208L326.373 344.486C323.527 346.084 320.472 347.416 317.232 348.431" fill="#F9D2E1"/>
<path d="M312.448 319.763C311.296 320.408 310.062 320.947 308.752 321.358L317.232 348.431C320.472 347.415 323.528 346.084 326.373 344.485L312.448 319.763" fill="#FCE7EF"/>
<path d="M437.752 542.218L451.675 566.936C470.497 556.332 487.748 544.021 503.346 530.302L484.584 509.013C470.448 521.449 454.812 532.609 437.752 542.218Z" fill="#F22540"/>
<path d="M423.829 517.501L437.752 542.218C454.812 532.609 470.448 521.449 484.583 509.013L465.822 487.727C453.146 498.875 439.125 508.882 423.829 517.501Z" fill="#F33B53"/>
<path d="M409.906 492.784L423.829 517.501C439.125 508.883 453.146 498.876 465.822 487.727L447.062 466.441C435.846 476.304 423.44 485.16 409.906 492.784" fill="#F55066"/>
<path d="M395.983 468.066L409.906 492.783C423.44 485.159 435.846 476.303 447.062 466.44L428.3 445.151C418.543 453.732 407.755 461.433 395.983 468.066" fill="#F66679"/>
<path d="M382.06 443.346L395.983 468.066C407.755 461.433 418.543 453.732 428.3 445.151L409.538 423.865C401.244 431.16 392.07 437.709 382.06 443.346Z" fill="#F77B8C"/>
<path d="M368.137 418.629L382.06 443.346C392.07 437.709 401.244 431.161 409.538 423.865L390.776 402.579C383.944 408.589 376.385 413.983 368.137 418.629Z" fill="#F9919E"/>
<path d="M354.214 393.912L368.137 418.629C376.385 413.983 383.944 408.589 390.776 402.579L372.014 381.29C366.642 386.017 360.7 390.26 354.214 393.912Z" fill="#FAA6B1"/>
<path d="M340.293 369.195L354.214 393.912C360.7 390.26 366.642 386.018 372.014 381.291L353.252 360.004C349.342 363.446 345.015 366.534 340.293 369.195" fill="#FBBCC4"/>
<path d="M326.37 344.477L340.293 369.194C345.012 366.534 349.342 363.446 353.255 360.004L334.493 338.718C332.04 340.874 329.327 342.811 326.37 344.477Z" fill="#FDD1D7"/>
<path d="M315.731 317.429C314.74 318.303 313.642 319.084 312.447 319.76L326.37 344.477C329.327 342.811 332.039 340.874 334.493 338.718L315.731 317.429Z" fill="#FEE7EA"/>
</svg>
